<?xml version="1.0" encoding="UTF-8"?>
<svg id="Capa_2" data-name="Capa 2" xmlns="http://www.w3.org/2000/svg" viewBox="0 0 85.76 85.75">
  <defs>
    <style>
      .cls-1 {
        fill: #6c027b;
      }

      .cls-1, .cls-2, .cls-3, .cls-4, .cls-5 {
        stroke-width: 0px;
      }

      .cls-2 {
        fill: #e46c39;
      }

      .cls-3 {
        fill: #138dfe;
      }

      .cls-4 {
        fill: #13249e;
      }

      .cls-5 {
        fill: #de45a7;
      }
    </style>
  </defs>
  <g id="Capa_1-2" data-name="Capa 1">
    <g>
      <path class="cls-5" d="m42.89,42.88L27.52,2.85c4.97-1.91,10.04-2.85,15.37-2.85v42.88Z"/>
      <path class="cls-1" d="m42.89,42.88L20.8,6.12c2.27-1.37,4.24-2.33,6.72-3.28l15.37,40.03Z"/>
      <path class="cls-2" d="m42.89,42.88L7.34,18.9c3.72-5.52,7.76-9.35,13.46-12.78l22.08,36.75Z"/>
      <path class="cls-4" d="m42.89,42.88l-16.06,39.75C4.87,73.76-5.74,48.77,3.13,26.81c1.12-2.77,2.54-5.44,4.21-7.91l35.54,23.98Z"/>
      <path class="cls-3" d="m42.89,42.88V0c23.68,0,42.88,19.2,42.88,42.88s-19.2,42.88-42.88,42.88c-5.99,0-10.51-.88-16.06-3.12l16.06-39.75Z"/>
    </g>
  </g>
</svg>