<?xml version="1.0" encoding="UTF-8"?>
<svg id="Capa_2" data-name="Capa 2" xmlns="http://www.w3.org/2000/svg" viewBox="0 0 51 56.71">
  <defs>
    <style>
      .cls-1 {
        fill: #fff;
      }

      .cls-1, .cls-2 {
        stroke-width: 0px;
      }

      .cls-2 {
        fill: #198754;
      }
    </style>
  </defs>
  <g id="Capa_1-2" data-name="Capa 1">
    <g>
      <path class="cls-2" d="m51,39v-21.3c0-2.52-1.34-4.85-3.53-6.11L29.03.95c-2.18-1.26-4.87-1.26-7.05,0L3.53,11.6c-2.18,1.26-3.53,3.59-3.53,6.11v21.3c0,2.52,1.34,4.85,3.53,6.11l18.45,10.65c2.18,1.26,4.87,1.26,7.05,0l18.45-10.65c2.18-1.26,3.53-3.59,3.53-6.11Z"/>
      <path class="cls-1" d="m12.55,20.26c0-.9.72-1.62,1.62-1.62h1.62c6.26,0,11.33,5.07,11.33,11.33v9.71c0,.9-.72,1.62-1.62,1.62s-1.62-.72-1.62-1.62v-8.09c-6.26,0-11.33-5.07-11.33-11.33Zm25.9-3.24c0,5.75-4.28,10.5-9.82,11.23-.36-2.7-1.55-5.14-3.3-7.05,1.94-3.46,5.64-5.8,9.89-5.8h1.62c.9,0,1.62.72,1.62,1.62Z"/>
    </g>
  </g>
</svg>