<?xml version="1.0" encoding="UTF-8"?>
<svg id="Capa_2" data-name="Capa 2" xmlns="http://www.w3.org/2000/svg" viewBox="0 0 53 53">
  <defs>
    <style>
      .cls-1 {
        fill: #fff;
      }

      .cls-1, .cls-2 {
        stroke-width: 0px;
      }

      .cls-2 {
        fill: #198754;
      }
    </style>
  </defs>
  <g id="Capa_1-2" data-name="Capa 1">
    <g>
      <circle class="cls-2" cx="26.5" cy="26.5" r="26.5"/>
      <path class="cls-1" d="m20.83,23.51c-1.51,1.34-2.46,3.29-2.46,5.46,0,1.74.61,3.34,1.62,4.6v1.09c0,.9-.73,1.62-1.62,1.62h-3.25c-.9,0-1.62-.73-1.62-1.62v-1.36c-1.92-.91-3.25-2.87-3.25-5.14,0-3.14,2.54-5.69,5.69-5.69h1.62c1.22,0,2.35.38,3.27,1.03h0Zm-7.33,2.5c-.51.57-.81,1.33-.81,2.15s.3,1.58.81,2.15v-4.3Zm.41-8.01c0-1.02.54-1.95,1.42-2.46.88-.51,1.96-.51,2.84,0,.88.51,1.42,1.45,1.42,2.46s-.54,1.95-1.42,2.46c-.88.51-1.96.51-2.84,0-.88-.51-1.42-1.45-1.42-2.46Zm19.09,10.97c0,2.27-1.33,4.23-3.25,5.14v2.17c0,.9-.73,1.62-1.62,1.62h-3.25c-.9,0-1.62-.73-1.62-1.62v-2.17c-1.92-.91-3.25-2.87-3.25-5.14,0-3.14,2.54-5.69,5.69-5.69h1.62c3.14,0,5.69,2.54,5.69,5.69Zm-10.56,0c0,.82.3,1.57.81,2.15v-4.3c-.51.57-.81,1.33-.81,2.15Zm4.06-13.81c1.16,0,2.23.62,2.81,1.62s.58,2.24,0,3.25-1.65,1.62-2.81,1.62-2.23-.62-2.81-1.62-.58-2.24,0-3.25,1.65-1.62,2.81-1.62Zm3.25,11.66v4.3c.51-.57.81-1.33.81-2.15s-.3-1.58-.81-2.15h0Zm3.25,7.84v-1.09c1.02-1.25,1.62-2.85,1.62-4.6,0-2.17-.95-4.13-2.46-5.47.92-.65,2.05-1.03,3.27-1.03h1.62c3.14,0,5.69,2.54,5.69,5.69,0,2.27-1.33,4.23-3.25,5.14v1.36c0,.9-.73,1.62-1.62,1.62h-3.25c-.9,0-1.62-.73-1.62-1.62Zm.41-16.66c0-1.02.54-1.95,1.42-2.46.88-.51,1.96-.51,2.84,0,.88.51,1.42,1.45,1.42,2.46s-.54,1.95-1.42,2.46c-.88.51-1.96.51-2.84,0-.88-.51-1.42-1.45-1.42-2.46Zm6.09,8.01v4.3c.51-.57.81-1.33.81-2.15s-.3-1.58-.81-2.15h0Z"/>
    </g>
  </g>
</svg>