<?xml version="1.0" encoding="UTF-8"?>
<svg id="Capa_2" data-name="Capa 2" xmlns="http://www.w3.org/2000/svg" viewBox="0 0 53 53">
  <defs>
    <style>
      .cls-1 {
        fill: #fff;
      }

      .cls-1, .cls-2 {
        stroke-width: 0px;
      }

      .cls-2 {
        fill: #198754;
      }
    </style>
  </defs>
  <g id="Capa_1-2" data-name="Capa 1">
    <g>
      <circle class="cls-2" cx="26.5" cy="26.5" r="26.5"/>
      <path class="cls-1" d="m14.72,18h5.69c.68,0,1.22.54,1.22,1.22s-.54,1.22-1.22,1.22h-5.69c-.68,0-1.22-.54-1.22-1.22s.54-1.22,1.22-1.22Zm-1.22,10.97c0-1.35,1.09-2.44,2.44-2.44h21.12c1.35,0,2.44,1.09,2.44,2.44v8.12c0,1.35-1.09,2.44-2.44,2.44H15.94c-1.35,0-2.44-1.09-2.44-2.44v-8.12Zm2.84-14.62h2.44c.68,0,1.22.54,1.22,1.22s-.54,1.22-1.22,1.22h-2.44c-.68,0-1.22-.54-1.22-1.22s.54-1.22,1.22-1.22Zm-1.22,8.53c0-.68.54-1.22,1.22-1.22h2.44c.68,0,1.22.54,1.22,1.22s-.54,1.22-1.22,1.22h-2.44c-.68,0-1.22-.54-1.22-1.22Zm3.25,6.09h-2.44v2.44c1.35,0,2.44-1.09,2.44-2.44Zm-2.44,5.69v2.44h2.44c0-1.35-1.09-2.44-2.44-2.44Zm6.5-21.12c2.24,0,4.06,1.82,4.06,4.06,0,.45-.37.81-.81.81-2.24,0-4.06-1.82-4.06-4.06,0-.45.37-.81.81-.81Zm4.06,7.31c0,2.24-1.82,4.06-4.06,4.06-.45,0-.81-.37-.81-.81,0-2.24,1.82-4.06,4.06-4.06.45,0,.81.37.81.81Zm3.25,12.19c0-1.16-.62-2.23-1.62-2.81s-2.24-.58-3.25,0-1.62,1.65-1.62,2.81.62,2.23,1.62,2.81,2.24.58,3.25,0,1.62-1.65,1.62-2.81Zm-2.44-18.69c0-.45.37-.81.81-.81,2.24,0,4.06,1.82,4.06,4.06,0,.45-.37.81-.81.81-2.24,0-4.06-1.82-4.06-4.06Zm4.06,5.69c.45,0,.81.37.81.81,0,2.24-1.82,4.06-4.06,4.06-.45,0-.81-.37-.81-.81,0-2.24,1.82-4.06,4.06-4.06Zm2.44-6.5c2.24,0,4.06,1.82,4.06,4.06,0,.45-.37.81-.81.81-2.24,0-4.06-1.82-4.06-4.06,0-.45.37-.81.81-.81Zm4.06,7.31c0,2.24-1.82,4.06-4.06,4.06-.45,0-.81-.37-.81-.81,0-2.24,1.82-4.06,4.06-4.06.45,0,.81.37.81.81Zm-3.25,8.12c0,1.35,1.09,2.44,2.44,2.44v-2.44h-2.44Zm2.44,5.69c-1.35,0-2.44,1.09-2.44,2.44h2.44v-2.44Z"/>
    </g>
  </g>
</svg>