<?xml version="1.0" encoding="UTF-8"?>
<svg id="Capa_2" data-name="Capa 2" xmlns="http://www.w3.org/2000/svg" viewBox="0 0 53 53">
  <defs>
    <style>
      .cls-1 {
        fill: #fff;
      }

      .cls-1, .cls-2 {
        stroke-width: 0px;
      }

      .cls-2 {
        fill: #198754;
      }
    </style>
  </defs>
  <g id="Capa_1-2" data-name="Capa 1">
    <g>
      <circle class="cls-2" cx="26.5" cy="26.5" r="26.5"/>
      <path class="cls-1" d="m15.12,16.78c0-1.79,1.46-3.25,3.25-3.25h5.4c1.33,0,2.52.81,3.02,2.04l2.44,6.08h5.4v-1.72c0-1.26.29-2.5.86-3.64l.13-.25c.4-.8,1.38-1.13,2.18-.73.8.4,1.13,1.38.73,2.18l-.13.25c-.34.68-.51,1.42-.51,2.18v1.72h2.84c1.12,0,2.03.91,2.03,2.03v2.31c0,.84-.43,1.62-1.15,2.07l-2.2,1.38c-.72-.3-1.51-.47-2.34-.47-2,0-3.76.96-4.88,2.44h-4.06c0,.9-.73,1.62-1.62,1.62h-.42c-.09.24-.19.48-.29.72l.29.29c.63.63.63,1.67,0,2.3l-1.15,1.15c-.63.63-1.67.63-2.3,0l-.29-.29c-.23.11-.47.21-.72.29v.42c0,.9-.73,1.62-1.62,1.62h-1.62c-.9,0-1.62-.73-1.62-1.62v-.42c-.24-.09-.48-.19-.72-.29l-.29.29c-.63.63-1.67.63-2.3,0l-1.15-1.15c-.63-.63-.63-1.67,0-2.3l.29-.29c-.11-.23-.21-.47-.29-.72h-.42c-.9,0-1.62-.73-1.62-1.62v-1.62c0-.9.73-1.62,1.62-1.62h.42c.09-.24.19-.48.29-.72l-.29-.29c-.63-.63-.63-1.67,0-2.3l1.15-1.15c.46-.46,1.11-.58,1.68-.39v-6.53h0Zm4.06,9.75c-1.45,0-2.79.77-3.52,2.03-.73,1.26-.73,2.81,0,4.06.73,1.26,2.07,2.03,3.52,2.03s2.79-.77,3.52-2.03c.73-1.26.73-2.81,0-4.06-.73-1.26-2.07-2.03-3.52-2.03Zm4.59-9.75h-5.4v4.88h7.35l-1.95-4.88Zm13.29,22.75c-2.47,0-4.47-2-4.47-4.47,0-1.51.75-2.85,1.9-3.66.73-.51,1.61-.81,2.57-.81.14,0,.27,0,.4.02,2.28.2,4.07,2.12,4.07,4.45,0,2.47-2,4.47-4.47,4.47Zm0-3.25c.67,0,1.22-.55,1.22-1.22s-.55-1.22-1.22-1.22-1.22.55-1.22,1.22.55,1.22,1.22,1.22Z"/>
    </g>
  </g>
</svg>